<?xml version="1.0" encoding="utf-8"?>
<!-- Generator: Adobe Illustrator 16.0.0, SVG Export Plug-In . SVG Version: 6.00 Build 0)  -->
<!DOCTYPE svg PUBLIC "-//W3C//DTD SVG 1.1//EN" "http://www.w3.org/Graphics/SVG/1.1/DTD/svg11.dtd">
<svg version="1.1" id="Layer_1" xmlns="http://www.w3.org/2000/svg" xmlns:xlink="http://www.w3.org/1999/xlink" x="0px" y="0px"
	 width="860.188px" height="702.475px" viewBox="0 0 860.188 702.475" enable-background="new 0 0 860.188 702.475"
	 xml:space="preserve">
<path fill="#E0FCFF" stroke="#5292FC" stroke-width="18" stroke-miterlimit="10" d="M851.188,192.701h-0.005
	C850.818,91.32,773.497,9.231,430.094,9l0,0c0,0,0,0,0,0l0,0l0,0C86.69,9.231,9.368,91.32,9.005,192.701H9v0.001
	c0,0.13,0.003,0.26,0.003,0.39c0,0.11-0.002,0.22-0.002,0.33l0,0h0.004c0.108,30.252,7.071,58.783,25.909,83.94
	c-16.191,23.494-25.023,48.842-25.023,75.276c0,27.16,9.324,53.173,26.368,77.207c-19.179,24.801-26.255,52.976-26.364,82.865H9.891
	c0,0.106,0.002,0.212,0.002,0.318c0,0.129-0.002,0.258-0.002,0.385v0.001h0.005c0.361,99.284,77.553,179.696,420.199,180.062l0,0
	l0,0c0,0,0,0,0,0l0,0c342.647-0.365,419.834-80.777,420.202-180.062h0.004v-0.001c0-0.128-0.002-0.256-0.002-0.385
	c0-0.106,0.002-0.213,0.002-0.32h-0.004c-0.111-29.888-7.189-58.063-26.366-82.863c17.043-24.033,26.37-50.047,26.37-77.207
	c0-26.434-8.834-51.782-25.025-75.276c18.838-25.157,25.801-53.688,25.909-83.94h0.005l0,0c0-0.109-0.002-0.22-0.002-0.33
	C851.187,192.962,851.188,192.832,851.188,192.701L851.188,192.701z"/>
</svg>
